<svg xmlns="http://www.w3.org/2000/svg" width="755.907" height="226.72" viewBox="0 0 566.93 170.04"><g data-name="Layer 1"><clipPath id="a"><path transform="matrix(1 0 0 -1 0 170.04)" d="M0 170.04h566.93V0H0z"/></clipPath><g clip-path="url(#a)" fill="#1ed760"><path d="M137.532 75.517c-26.994-16.031-71.52-17.505-97.289-9.684-4.139 1.256-8.515-1.08-9.768-5.218a7.835 7.835 0 0 1 5.22-9.772c29.582-8.98 78.756-7.245 109.832 11.202a7.832 7.832 0 0 1 2.737 10.733c-2.208 3.722-7.019 4.949-10.732 2.739m-.884 23.744c-1.894 3.073-5.912 4.037-8.98 2.15-22.505-13.833-56.823-17.841-83.448-9.76a6.539 6.539 0 0 1-8.148-4.35 6.538 6.538 0 0 1 4.354-8.141c30.415-9.23 68.226-4.76 94.074 11.125 3.07 1.89 4.035 5.91 2.148 8.976m-10.247 22.803a5.215 5.215 0 0 1-7.177 1.737c-19.665-12.02-44.417-14.733-73.567-8.075a5.216 5.216 0 0 1-6.249-3.924 5.213 5.213 0 0 1 3.925-6.25c31.9-7.292 59.263-4.154 81.336 9.334a5.22 5.22 0 0 1 1.732 7.178M87.995 1.277c-46.249 0-83.743 37.493-83.743 83.742 0 46.254 37.494 83.745 83.743 83.745 46.251 0 83.744-37.491 83.744-83.745 0-46.25-37.493-83.742-83.744-83.742M232.089 78.586c-14.46-3.448-17.033-5.868-17.033-10.953 0-4.804 4.523-8.036 11.249-8.036 6.52 0 12.984 2.455 19.763 7.51a.945.945 0 0 0 .715.173.93.93 0 0 0 .625-.386l7.06-9.952a.949.949 0 0 0-.18-1.288c-8.067-6.473-17.151-9.62-27.77-9.62-15.611 0-26.516 9.368-26.516 22.774 0 14.375 9.407 19.464 25.663 23.394 13.836 3.187 16.17 5.856 16.17 10.63 0 5.29-4.72 8.577-12.32 8.577-8.44 0-15.323-2.843-23.024-9.512a.997.997 0 0 0-.695-.226.94.94 0 0 0-.65.334l-7.916 9.421a.94.94 0 0 0 .094 1.313c8.96 8 19.98 12.224 31.87 12.224 16.825 0 27.695-9.192 27.695-23.419 0-12.024-7.183-18.674-24.8-22.958M307.162 94.701c0 10.153-6.254 17.238-15.209 17.238-8.853 0-15.53-7.407-15.53-17.238 0-9.83 6.677-17.238 15.53-17.238 8.811 0 15.21 7.248 15.21 17.238M294.95 64.326c-7.292 0-13.273 2.872-18.205 8.757V66.46a.949.949 0 0 0-.947-.949h-12.946a.948.948 0 0 0-.946.95v73.601c0 .523.423.95.946.95h12.946a.949.949 0 0 0 .947-.95v-23.233c4.933 5.537 10.915 8.241 18.205 8.241 13.55 0 27.265-10.43 27.265-30.368 0-19.942-13.716-30.375-27.265-30.375M357.373 112.045c-9.28 0-16.278-7.457-16.278-17.344 0-9.929 6.755-17.134 16.064-17.134 9.34 0 16.385 7.457 16.385 17.351 0 9.927-6.8 17.127-16.17 17.127m0-47.719c-17.45 0-31.12 13.436-31.12 30.592 0 16.97 13.576 30.264 30.905 30.264 17.511 0 31.223-13.392 31.223-30.48 0-17.034-13.618-30.376-31.009-30.376M425.644 65.51h-14.247V50.944a.947.947 0 0 0-.945-.949h-12.945a.95.95 0 0 0-.95.95V65.51h-6.225a.947.947 0 0 0-.943.95v11.125c0 .523.422.95.943.95h6.225v28.79c0 11.635 5.79 17.535 17.212 17.535 4.644 0 8.497-.959 12.129-3.018a.946.946 0 0 0 .478-.82v-10.597a.948.948 0 0 0-1.372-.85c-2.494 1.255-4.905 1.834-7.6 1.834-4.153 0-6.007-1.886-6.007-6.113V78.534h14.247a.946.946 0 0 0 .944-.949V66.46a.946.946 0 0 0-.944-.949M475.281 65.567v-1.79c0-5.262 2.018-7.61 6.544-7.61 2.699 0 4.867.537 7.295 1.347a.946.946 0 0 0 1.245-.901V45.702a.946.946 0 0 0-.669-.908c-2.565-.763-5.847-1.547-10.761-1.547-11.959 0-18.279 6.735-18.279 19.467v2.74h-6.219a.952.952 0 0 0-.951.948v11.184c0 .522.428.949.951.949h6.219v44.409c0 .523.422.949.944.949h12.946a.95.95 0 0 0 .949-.95V78.536h12.088l18.517 44.397c-2.102 4.665-4.169 5.593-6.991 5.593-2.281 0-4.683-.681-7.139-2.024a.967.967 0 0 0-.754-.071.957.957 0 0 0-.56.51l-4.388 9.628a.941.941 0 0 0 .407 1.225c4.581 2.48 8.717 3.54 13.827 3.54 9.56 0 14.844-4.453 19.503-16.433l22.461-58.041a.948.948 0 0 0-.879-1.292h-13.478a.952.952 0 0 0-.897.636l-13.807 39.437-15.123-39.463a.944.944 0 0 0-.884-.61zM446.505 65.51h-12.947a.95.95 0 0 0-.948.95v56.483a.95.95 0 0 0 .948.95h12.947a.951.951 0 0 0 .949-.95V66.46a.951.951 0 0 0-.95-.949M440.097 39.791c-5.129 0-9.29 4.152-9.29 9.281 0 5.132 4.161 9.29 9.29 9.29 5.127 0 9.285-4.158 9.285-9.29 0-5.129-4.158-9.28-9.285-9.28M554.05 71.129h-2.373v3.025h2.372c1.184 0 1.891-.58 1.891-1.513 0-.985-.707-1.512-1.89-1.512m1.536 4.315 2.578 3.608h-2.173l-2.32-3.31h-1.994v3.31h-1.819v-9.563h4.264c2.222 0 3.684 1.137 3.684 3.05 0 1.568-.906 2.526-2.22 2.905m-2.02-9.138c-4.666 0-8.198 3.71-8.198 8.253 0 4.54 3.506 8.2 8.151 8.2 4.665 0 8.201-3.707 8.201-8.252 0-4.541-3.509-8.201-8.154-8.201m-.047 17.365c-5.124 0-9.11-4.115-9.11-9.112s4.038-9.16 9.157-9.16a9.074 9.074 0 0 1 9.111 9.108c0 4.998-4.036 9.164-9.158 9.164"/></g></g></svg>